<svg xmlns="http://www.w3.org/2000/svg" width="470" height="132" viewBox="0 0 470 132" fill="none" role="img" aria-label="The Masterpieces — Vocal Ensemble">
  <!-- mark -->
  <g transform="translate(16 18) scale(2)">
    <rect width="48" height="48" rx="13" fill="#0d1a30"/>
    <g stroke="#e8b430" stroke-width="0.6" opacity="0.26">
      <line x1="8" y1="15" x2="40" y2="15"/><line x1="8" y1="19.5" x2="40" y2="19.5"/><line x1="8" y1="24" x2="40" y2="24"/><line x1="8" y1="28.5" x2="40" y2="28.5"/><line x1="8" y1="33" x2="40" y2="33"/>
    </g>
    <g transform="translate(13.5 6.5) scale(0.5)">
      <path d="M 18 58 C 14 54 8 46 8 38 C 8 30 12 26 18 24 L 18 24 C 18 18 18 10 20 6 C 22 2 26 0 28 2 C 30 4 28 8 26 12 C 24 16 20 22 18 28 L 18 28 C 24 28 30 32 30 40 C 30 48 24 52 18 52 C 14 52 12 48 12 44 C 12 40 14 38 18 38 C 22 38 24 40 24 44 C 24 46 22 48 20 48" fill="none" stroke="#e8b430" stroke-width="3" stroke-linecap="round" stroke-linejoin="round"/>
    </g>
    <rect x="8" y="39" width="6.4" height="3" fill="#e8b430"/><rect x="14.4" y="39" width="6.4" height="3" fill="#e07830"/><rect x="20.8" y="39" width="6.4" height="3" fill="#d03a6a"/><rect x="27.2" y="39" width="6.4" height="3" fill="#20a89a"/><rect x="33.6" y="39" width="6.4" height="3" fill="#7b52c4"/>
  </g>
  <!-- wordmark -->
  <text x="132" y="52" font-family="'Outfit', Helvetica, Arial, sans-serif" font-size="13" font-weight="300" letter-spacing="9" fill="#e8b430">THE</text>
  <text x="131" y="86" font-family="'Cormorant Garamond', Georgia, serif" font-size="42" font-weight="700" letter-spacing="5" fill="#0d1a30">MASTERPIECES</text>
  <!-- five-bar rule -->
  <g transform="translate(133 98)">
    <rect x="0" y="0" width="59" height="3" fill="#e8b430"/><rect x="59" y="0" width="59" height="3" fill="#e07830"/><rect x="118" y="0" width="59" height="3" fill="#d03a6a"/><rect x="177" y="0" width="59" height="3" fill="#20a89a"/><rect x="236" y="0" width="59" height="3" fill="#7b52c4"/>
  </g>
  <text x="133" y="118" font-family="'Outfit', Helvetica, Arial, sans-serif" font-size="11.5" font-weight="500" letter-spacing="4" fill="#6e6e82">VOCAL ENSEMBLE</text>
</svg>
